<svg width="20" height="20" viewBox="0 0 20 20" fill="none" xmlns="http://www.w3.org/2000/svg">
  <path fill-rule="evenodd" clip-rule="evenodd" d="M10 17C13.866 17 17 13.866 17 10C17 6.13401 13.866 3 10 3C6.13401 3 3 6.13401 3 10C3 13.866 6.13401 17 10 17ZM12.5 8C12.5 6.90718 11.3219 6 10.0222 6C9.20731 6 8.64569 6.23077 8.17217 6.69231C7.81949 7.02824 7.49999 7.5 7.5082 7.97956C7.51388 8.31135 7.7374 8.60439 8.08407 8.60439C8.43073 8.60439 8.56127 8.46416 8.78063 7.98208C8.99998 7.5 9.335 7.07692 10.0222 7.07692C10.7273 7.07692 11.2115 7.52673 11.2115 8.24176C11.2115 8.61652 11 9 10.5 9.5L10.4998 9.50017C9.99993 10.0001 9.50001 10.5001 9.50001 11C9.50001 11.5 10 12 10 12C10 11.4819 10.4958 10.9955 10.8768 10.6217L10.8768 10.6216L10.8769 10.6216C10.9197 10.5796 10.961 10.539 11 10.5C11.0875 10.4125 11.1711 10.3298 11.2509 10.2508C12.0836 9.42653 12.5 9.01441 12.5 8ZM10.7161 13.0781C10.5226 12.8927 10.2774 12.8 9.99353 12.8C9.70966 12.8 9.4774 12.8927 9.28386 13.0781C9.09031 13.2636 8.99998 13.502 8.99998 13.7934C8.99998 14.0848 9.09031 14.3232 9.28386 14.5086C9.4774 14.694 9.70966 14.8 9.99353 14.8C10.2774 14.8 10.5097 14.7073 10.7032 14.5219C10.8968 14.3364 11 14.0848 11 13.7934C11 13.502 10.8968 13.2636 10.7161 13.0781Z" fill="var(--icon-fill, rgba(65, 70, 75, 0.3))"/>
</svg>
