<svg width="20" height="20" viewBox="0 0 20 20" fill="none" xmlns="http://www.w3.org/2000/svg">
  <path d="M3 3L17 17M10 7C11.6569 7 13 8.34315 13 10C13 10.3506 12.9398 10.6872 12.8293 11M7.17071 7.17071C7.06015 7.48721 7 7.82355 7 8C7 9.65685 8.34315 11 10 11C10.1765 11 10.5128 10.9398 10.8293 10.8293M4 10C4 10 6.5 5 10 5C13.5 5 16 10 16 10C16 10 15 12 13 13.5M10 15C6.5 15 4 10 4 10C4 10 4.5 8.5 6 7" stroke="currentColor" stroke-width="1.5" stroke-linecap="round" stroke-linejoin="round"/>
</svg>
